<mxfile host="app.diagrams.net" modified="2024-01-04T15:14:10.355Z" agent="Mozilla/5.0 (Windows NT 10.0; Win64; x64) AppleWebKit/537.36 (KHTML, like Gecko) Chrome/120.0.0.0 Safari/537.36" version="22.1.16" etag="-o8s2Kwzk9OvQY-39cA_" type="github">
  <diagram name="Page-1" id="UZ3EhBI8W0iZutxNXLOV">
    <mxGraphModel>
      <root>
        <mxCell id="0" />
        <mxCell id="1" parent="0" />
      </root>
    </mxGraphModel>
  </diagram>
</mxfile>
